<svg width="20" height="20" viewBox="0 0 20 20" fill="none" xmlns="http://www.w3.org/2000/svg">
<path fill-rule="evenodd" clip-rule="evenodd" d="M5.98479 4.24999H4.16606L4.09279 4.24997C3.70006 4.24977 3.39707 4.24962 3.12956 4.30283C2.03867 4.51982 1.1859 5.37259 0.968903 6.46349C0.915693 6.731 0.915844 7.03399 0.916039 7.42671L0.916063 7.49999L0.916039 7.57327C0.915844 7.96599 0.915693 8.26898 0.968903 8.53649C1.0828 9.1091 1.37187 9.6161 1.7786 9.99999H1.7494L1.7494 10.0489C1.74938 11.6512 1.74937 12.9205 1.86808 13.9247C1.98994 14.9557 2.24578 15.8044 2.8276 16.5134C3.02498 16.7539 3.24552 16.9744 3.48603 17.1718C4.19497 17.7536 5.04367 18.0094 6.07465 18.1313C7.07883 18.25 8.34814 18.25 9.95033 18.25H9.95035H9.95037H9.95039H9.95049H9.9994H10.0483H10.0484H10.0484H10.0484H10.0485C11.6507 18.25 12.92 18.25 13.9241 18.1313C14.9551 18.0094 15.8038 17.7536 16.5128 17.1718C16.7533 16.9744 16.9738 16.7539 17.1712 16.5134C17.753 15.8044 18.0089 14.9557 18.1307 13.9247C18.2494 12.9206 18.2494 11.6512 18.2494 10.0491V10.049V10.049V10.049V10.0489V9.99999C18.2494 9.99078 18.2492 9.98162 18.2489 9.97249C18.6405 9.59204 18.9187 9.09554 19.0299 8.53649C19.0831 8.26899 19.0829 7.966 19.0828 7.57328L19.0827 7.49999L19.0828 7.4267C19.0829 7.03398 19.0831 6.73099 19.0299 6.46349C18.8129 5.37259 17.9601 4.51982 16.8692 4.30283C16.6017 4.24962 16.2987 4.24977 15.906 4.24997L15.8327 4.24999H14.014C13.6618 2.35305 11.9984 0.916656 9.9994 0.916656C8.00043 0.916656 6.33695 2.35305 5.98479 4.24999ZM7.52662 4.24999H12.4722C12.1508 3.18901 11.1653 2.41666 9.9994 2.41666C8.83349 2.41666 7.84799 3.18901 7.52662 4.24999ZM13.3327 5.74999H6.66606H4.16606C3.66546 5.74999 3.52469 5.75362 3.4222 5.77401C2.92634 5.87264 2.53871 6.26026 2.44008 6.75613C2.4197 6.85861 2.41606 6.99939 2.41606 7.49999C2.41606 8.00059 2.4197 8.14137 2.44008 8.24385C2.53871 8.73972 2.92634 9.12734 3.4222 9.22597C3.52469 9.24636 3.66546 9.24999 4.16606 9.24999H5.91606V8.74999C5.91606 8.33578 6.25185 7.99999 6.66606 7.99999C7.08028 7.99999 7.41606 8.33578 7.41606 8.74999V9.24999H12.5827V8.74999C12.5827 8.33578 12.9185 7.99999 13.3327 7.99999C13.7469 7.99999 14.0827 8.33578 14.0827 8.74999V9.24999H15.8327C16.3333 9.24999 16.4741 9.24636 16.5766 9.22597C17.0725 9.12734 17.4601 8.73972 17.5587 8.24385C17.5791 8.14137 17.5827 8.00059 17.5827 7.49999C17.5827 6.99939 17.5791 6.85861 17.5587 6.75613C17.4601 6.26026 17.0725 5.87264 16.5766 5.77401C16.4741 5.75362 16.3333 5.74999 15.8327 5.74999H13.3327ZM12.5827 10.75V11.25C12.5827 11.6642 12.9185 12 13.3327 12C13.7469 12 14.0827 11.6642 14.0827 11.25V10.75H15.8327L15.906 10.75C16.2411 10.7502 16.5108 10.7503 16.749 10.7173C16.7466 12.0107 16.7321 12.9789 16.6411 13.7487C16.536 14.638 16.3378 15.1644 16.0117 15.5618C15.8766 15.7263 15.7257 15.8772 15.5612 16.0123C15.1638 16.3384 14.6374 16.5366 13.7481 16.6417C12.8422 16.7488 11.6615 16.75 9.9994 16.75C8.33728 16.75 7.15664 16.7488 6.25072 16.6417C5.36137 16.5366 4.83502 16.3384 4.43762 16.0123C4.27306 15.8772 4.12216 15.7263 3.98711 15.5618C3.66097 15.1644 3.46283 14.638 3.35771 13.7487C3.26671 12.9789 3.25215 12.0107 3.24983 10.7173C3.48796 10.7503 3.75771 10.7502 4.09279 10.75L4.16606 10.75H5.91606V11.25C5.91606 11.6642 6.25185 12 6.66606 12C7.08028 12 7.41606 11.6642 7.41606 11.25V10.75H12.5827Z" fill="#595959"/>
</svg>
