<svg width="20" height="20" viewBox="0 0 20 20" fill="none" xmlns="http://www.w3.org/2000/svg">
<path fill-rule="evenodd" clip-rule="evenodd" d="M8.33268 2.58333L8.29589 2.58333C7.08092 2.58332 6.11814 2.58332 5.34511 2.65338C4.55399 2.72508 3.88829 2.87487 3.29102 3.21971C2.56892 3.63661 1.9693 4.23624 1.5524 4.95833C1.20756 5.5556 1.05777 6.2213 0.986065 7.01242C0.916003 7.78545 0.916009 8.74823 0.916016 9.9632L0.916016 9.99999L0.916016 10.0368C0.916009 11.2518 0.916003 12.2145 0.986065 12.9876C1.05777 13.7787 1.20756 14.4444 1.5524 15.0417C1.9693 15.7638 2.56892 16.3634 3.29102 16.7803C3.88829 17.1251 4.55399 17.2749 5.34511 17.3466C6.11814 17.4167 7.08093 17.4167 8.29592 17.4167H8.33269H11.666H11.7028C12.9178 17.4167 13.8806 17.4167 14.6536 17.3466C15.4447 17.2749 16.1104 17.1251 16.7077 16.7803C17.4298 16.3634 18.0294 15.7638 18.4463 15.0417C18.7911 14.4444 18.9409 13.7787 19.0126 12.9876C19.0827 12.2145 19.0827 11.2518 19.0827 10.0368V9.99999V9.96318C19.0827 8.74821 19.0827 7.78544 19.0126 7.01242C18.9409 6.2213 18.7911 5.5556 18.4463 4.95833C18.0294 4.23624 17.4298 3.63661 16.7077 3.21971C16.1104 2.87487 15.4447 2.72508 14.6536 2.65338C13.8806 2.58332 12.9178 2.58332 11.7028 2.58333L11.666 2.58333H8.33268ZM4.04102 4.51875C4.37194 4.32769 4.79342 4.20953 5.48051 4.14725C6.1779 4.08405 7.07273 4.08333 8.33268 4.08333H11.666C12.926 4.08333 13.8208 4.08405 14.5182 4.14725C15.2053 4.20953 15.6268 4.32769 15.9577 4.51875C16.4517 4.80399 16.862 5.21427 17.1473 5.70833C17.3383 6.03925 17.4565 6.46074 17.5188 7.14782C17.582 7.84521 17.5827 8.74004 17.5827 9.99999C17.5827 11.26 17.582 12.1548 17.5188 12.8522C17.4565 13.5393 17.3383 13.9607 17.1473 14.2917C16.862 14.7857 16.4517 15.196 15.9577 15.4812C15.6268 15.6723 15.2053 15.7905 14.5182 15.8527C13.8208 15.9159 12.926 15.9167 11.666 15.9167H8.33269C7.07273 15.9167 6.1779 15.9159 5.48051 15.8527C4.79342 15.7905 4.37194 15.6723 4.04102 15.4812C3.54695 15.196 3.13668 14.7857 2.85143 14.2917C2.66037 13.9607 2.54221 13.5393 2.47994 12.8522C2.41673 12.1548 2.41602 11.26 2.41602 9.99999C2.41602 8.74004 2.41673 7.84521 2.47994 7.14782C2.54221 6.46074 2.66037 6.03925 2.85143 5.70833C3.13668 5.21427 3.54695 4.80399 4.04102 4.51875ZM5.41537 6.04262C5.07073 5.81286 4.60508 5.90599 4.37531 6.25064C4.14555 6.59528 4.23868 7.06094 4.58332 7.2907L9.58332 10.624C9.83525 10.792 10.1634 10.792 10.4154 10.624L15.4154 7.2907C15.76 7.06094 15.8532 6.59528 15.6234 6.25064C15.3936 5.90599 14.928 5.81286 14.5833 6.04262L9.99935 9.09861L5.41537 6.04262Z" fill="#595959"/>
</svg>
