<svg width="40" height="41" viewBox="0 0 40 41" fill="none" xmlns="http://www.w3.org/2000/svg">
<rect x="0.5" y="1" width="39" height="39" rx="19.5" fill="white"/>
<rect x="0.5" y="1" width="39" height="39" rx="19.5" stroke="#F0F0F0"/>
<g clip-path="url(#clip0_911_577)">
<path d="M27.5 20.5C27.5 16.36 24.14 13 20 13C15.86 13 12.5 16.36 12.5 20.5C12.5 24.13 15.08 27.1525 18.5 27.85V22.75H17V20.5H18.5V18.625C18.5 17.1775 19.6775 16 21.125 16H23V18.25H21.5C21.0875 18.25 20.75 18.5875 20.75 19V20.5H23V22.75H20.75V27.9625C24.5375 27.5875 27.5 24.3925 27.5 20.5Z" fill="black"/>
</g>
<defs>
<clipPath id="clip0_911_577">
<rect width="18" height="18" fill="white" transform="translate(11 11.5)"/>
</clipPath>
</defs>
</svg>
