<svg width="204" height="153" viewBox="0 0 204 153" fill="none" xmlns="http://www.w3.org/2000/svg">
<circle cx="102.004" cy="102.003" r="24.1208" fill="#F0FDE2" stroke="url(#paint0_linear_537_732)" stroke-width="1.25"/>
<circle cx="102.256" cy="101.751" r="49.1191" stroke="#EBEBEA" stroke-width="1.25"/>
<path d="M157.897 148.97C168.709 136.243 175.231 119.758 175.231 101.751C175.231 61.4479 142.559 28.7759 102.256 28.7759C61.9532 28.7759 29.2812 61.4479 29.2812 101.751C29.2812 119.758 35.3879 135.738 46.1993 148.465" stroke="#EBEBEA" stroke-width="1.25"/>
<path d="M13.7942 151.242C5.64507 136.675 1 119.882 1 102.003C1 46.2207 46.2207 1 102.003 1C157.786 1 203.007 46.2207 203.007 102.003C203.007 119.943 198.33 136.79 190.129 151.392" stroke="#EBEBEA" stroke-width="1.25"/>
<path d="M13.625 150.735C27.2222 152.666 41.0835 150.9 53.7786 145.618C66.4736 140.336 77.5423 131.731 85.8424 120.689" stroke="#EBEBEA" stroke-width="1.25"/>
<path d="M189.877 151.24C176.185 153.172 162.226 151.405 149.443 146.123C136.659 140.841 125.513 132.236 117.155 121.194" stroke="#EBEBEA" stroke-width="1.25"/>
<path fill-rule="evenodd" clip-rule="evenodd" d="M105.907 85.2559C105.907 84.7025 105.545 84.2143 105.015 84.054C104.485 83.8936 103.913 84.0989 103.606 84.5593L90.2109 104.652C89.954 105.038 89.9301 105.533 90.1486 105.941C90.3671 106.35 90.7927 106.605 91.2558 106.605H98.372V118.744C98.372 119.297 98.7343 119.786 99.2639 119.946C99.7936 120.106 100.366 119.901 100.673 119.441L114.068 99.3478C114.325 98.9624 114.349 98.467 114.13 98.0586C113.912 97.6503 113.486 97.3954 113.023 97.3954H105.907V85.2559Z" fill="#16A224"/>
<mask id="path-8-inside-1_537_732" fill="white">
<path fill-rule="evenodd" clip-rule="evenodd" d="M104.806 90.9746C104.806 90.5907 104.554 90.2522 104.187 90.141C103.82 90.0297 103.423 90.1721 103.21 90.4914L93.9197 104.427C93.7415 104.694 93.7249 105.038 93.8765 105.321C94.0281 105.604 94.3232 105.781 94.6444 105.781H99.5799V114.2C99.5799 114.584 99.8311 114.923 100.198 115.034C100.566 115.145 100.963 115.003 101.176 114.683L110.466 100.748C110.644 100.481 110.661 100.137 110.509 99.8539C110.358 99.5707 110.062 99.3939 109.741 99.3939H104.806V90.9746Z"/>
</mask>
<path fill-rule="evenodd" clip-rule="evenodd" d="M104.806 90.9746C104.806 90.5907 104.554 90.2522 104.187 90.141C103.82 90.0297 103.423 90.1721 103.21 90.4914L93.9197 104.427C93.7415 104.694 93.7249 105.038 93.8765 105.321C94.0281 105.604 94.3232 105.781 94.6444 105.781H99.5799V114.2C99.5799 114.584 99.8311 114.923 100.198 115.034C100.566 115.145 100.963 115.003 101.176 114.683L110.466 100.748C110.644 100.481 110.661 100.137 110.509 99.8539C110.358 99.5707 110.062 99.3939 109.741 99.3939H104.806V90.9746Z" fill="#53F463"/>
<path d="M103.21 90.4914L104.042 91.0461L104.042 91.0461L103.21 90.4914ZM93.9197 104.427L94.7518 104.982L94.7518 104.982L93.9197 104.427ZM93.8765 105.321L94.7582 104.849L94.7582 104.849L93.8765 105.321ZM99.5799 105.781H100.58C100.58 105.229 100.132 104.781 99.5799 104.781V105.781ZM100.198 115.034L100.488 114.077H100.488L100.198 115.034ZM101.176 114.683L100.343 114.129L100.343 114.129L101.176 114.683ZM110.466 100.748L109.634 100.193L109.634 100.193L110.466 100.748ZM110.509 99.8539L109.627 100.326L109.627 100.326L110.509 99.8539ZM104.806 99.3939H103.806C103.806 99.9462 104.253 100.394 104.806 100.394V99.3939ZM103.897 91.098C103.843 91.0816 103.806 91.0314 103.806 90.9746H105.806C105.806 90.1501 105.266 89.4228 104.477 89.1839L103.897 91.098ZM104.042 91.0461C104.011 91.0934 103.952 91.1145 103.897 91.098L104.477 89.1839C103.688 88.9449 102.835 89.2507 102.378 89.9367L104.042 91.0461ZM94.7518 104.982L104.042 91.0461L102.378 89.9367L93.0877 103.872L94.7518 104.982ZM94.7582 104.849C94.7806 104.891 94.7782 104.942 94.7518 104.982L93.0877 103.872C92.7049 104.446 92.6692 105.185 92.9948 105.793L94.7582 104.849ZM94.6444 104.781C94.692 104.781 94.7357 104.807 94.7582 104.849L92.9948 105.793C93.3204 106.401 93.9544 106.781 94.6444 106.781V104.781ZM99.5799 104.781H94.6444V106.781H99.5799V104.781ZM100.58 114.2V105.781H98.5799V114.2H100.58ZM100.488 114.077C100.543 114.093 100.58 114.143 100.58 114.2H98.5799C98.5799 115.025 99.1196 115.752 99.9087 115.991L100.488 114.077ZM100.343 114.129C100.375 114.081 100.434 114.06 100.488 114.077L99.9087 115.991C100.698 116.23 101.55 115.924 102.008 115.238L100.343 114.129ZM109.634 100.193L100.343 114.129L102.008 115.238L111.298 101.303L109.634 100.193ZM109.627 100.326C109.605 100.284 109.607 100.233 109.634 100.193L111.298 101.303C111.681 100.729 111.716 99.9904 111.391 99.382L109.627 100.326ZM109.741 100.394C109.694 100.394 109.65 100.368 109.627 100.326L111.391 99.382C111.065 98.7737 110.431 98.3939 109.741 98.3939V100.394ZM104.806 100.394H109.741V98.3939H104.806V100.394ZM103.806 90.9746V99.3939H105.806V90.9746H103.806Z" fill="#0ED722" mask="url(#path-8-inside-1_537_732)"/>
<defs>
<linearGradient id="paint0_linear_537_732" x1="102.004" y1="77.2576" x2="102.004" y2="126.749" gradientUnits="userSpaceOnUse">
<stop stop-color="#25C120"/>
<stop offset="1" stop-color="#D5FBA8"/>
</linearGradient>
</defs>
</svg>
