<svg width="40" height="41" viewBox="0 0 40 41" fill="none" xmlns="http://www.w3.org/2000/svg">
<rect x="0.5" y="1" width="39" height="39" rx="19.5" fill="white"/>
<rect x="0.5" y="1" width="39" height="39" rx="19.5" stroke="#F0F0F0"/>
<path d="M20 16.9062C21.9688 16.9062 23.5938 18.5312 23.5938 20.5C23.5938 22.5 21.9688 24.0938 20 24.0938C18 24.0938 16.4062 22.5 16.4062 20.5C16.4062 18.5312 18 16.9062 20 16.9062ZM20 22.8438C21.2812 22.8438 22.3125 21.8125 22.3125 20.5C22.3125 19.2188 21.2812 18.1875 20 18.1875C18.6875 18.1875 17.6562 19.2188 17.6562 20.5C17.6562 21.8125 18.7188 22.8438 20 22.8438ZM24.5625 16.7812C24.5625 17.25 24.1875 17.625 23.7188 17.625C23.25 17.625 22.875 17.25 22.875 16.7812C22.875 16.3125 23.25 15.9375 23.7188 15.9375C24.1875 15.9375 24.5625 16.3125 24.5625 16.7812ZM26.9375 17.625C27 18.7812 27 22.25 26.9375 23.4062C26.875 24.5312 26.625 25.5 25.8125 26.3438C25 27.1562 24 27.4062 22.875 27.4688C21.7188 27.5312 18.25 27.5312 17.0938 27.4688C15.9688 27.4062 15 27.1562 14.1562 26.3438C13.3438 25.5 13.0938 24.5312 13.0312 23.4062C12.9688 22.25 12.9688 18.7812 13.0312 17.625C13.0938 16.5 13.3438 15.5 14.1562 14.6875C15 13.875 15.9688 13.625 17.0938 13.5625C18.25 13.5 21.7188 13.5 22.875 13.5625C24 13.625 25 13.875 25.8125 14.6875C26.625 15.5 26.875 16.5 26.9375 17.625ZM25.4375 24.625C25.8125 23.7188 25.7188 21.5312 25.7188 20.5C25.7188 19.5 25.8125 17.3125 25.4375 16.375C25.1875 15.7812 24.7188 15.2812 24.125 15.0625C23.1875 14.6875 21 14.7812 20 14.7812C18.9688 14.7812 16.7812 14.6875 15.875 15.0625C15.25 15.3125 14.7812 15.7812 14.5312 16.375C14.1562 17.3125 14.25 19.5 14.25 20.5C14.25 21.5312 14.1562 23.7188 14.5312 24.625C14.7812 25.25 15.25 25.7188 15.875 25.9688C16.7812 26.3438 18.9688 26.25 20 26.25C21 26.25 23.1875 26.3438 24.125 25.9688C24.7188 25.7188 25.2188 25.25 25.4375 24.625Z" fill="#121212"/>
</svg>
