<svg width="40" height="41" viewBox="0 0 40 41" fill="none" xmlns="http://www.w3.org/2000/svg">
<rect x="0.5" y="1" width="39" height="39" rx="19.5" fill="white"/>
<rect x="0.5" y="1" width="39" height="39" rx="19.5" stroke="#F0F0F0"/>
<path d="M26 13.5C26.5312 13.5 27 13.9688 27 14.5312V26.5C27 27.0625 26.5312 27.5 26 27.5H13.9688C13.4375 27.5 13 27.0625 13 26.5V14.5312C13 13.9688 13.4375 13.5 13.9688 13.5H26ZM17.2188 25.5V18.8438H15.1562V25.5H17.2188ZM16.1875 17.9062C16.8438 17.9062 17.375 17.375 17.375 16.7188C17.375 16.0625 16.8438 15.5 16.1875 15.5C15.5 15.5 14.9688 16.0625 14.9688 16.7188C14.9688 17.375 15.5 17.9062 16.1875 17.9062ZM25 25.5V21.8438C25 20.0625 24.5938 18.6562 22.5 18.6562C21.5 18.6562 20.8125 19.2188 20.5312 19.75H20.5V18.8438H18.5312V25.5H20.5938V22.2188C20.5938 21.3438 20.75 20.5 21.8438 20.5C22.9062 20.5 22.9062 21.5 22.9062 22.25V25.5H25Z" fill="#121212"/>
</svg>
