<svg width="125" height="44" viewBox="0 0 125 44" fill="none" xmlns="http://www.w3.org/2000/svg">
<path fill-rule="evenodd" clip-rule="evenodd" d="M28 14.9075C15.4875 2.82339 4.2 8.27648 0 18.3974C8.88125 6.09524 20.475 10.8067 28 14.9075ZM0 28.8673C7 31.6593 21 31.6593 28 28.8673C21 38.3775 7 38.3775 0 28.8673ZM27.9563 16.8704C17.7188 13.7125 10.4125 15.1255 5.64375 18.1792C20.8297 16.6867 28 19.0516 28 28.5182C23.6688 19.3134 12.25 19.8805 0 21.8872C1.93798 12.3624 17.4562 9.06164 27.9563 16.8704Z" fill="#32F245"/>
<path d="M38.32 20.716H45.208V24.244H38.32V30.58H34V13.42H46.768V16.948H38.32V20.716Z" fill="white"/>
<path d="M54.1034 30.964C49.9994 30.964 47.5274 28.252 47.5274 24.436C47.5274 20.62 49.9994 17.908 54.1034 17.908C58.1834 17.908 60.6554 20.62 60.6554 24.436C60.6554 28.252 58.1834 30.964 54.1034 30.964ZM54.1034 28.084C55.7834 28.084 56.8154 26.812 56.8154 24.436C56.8154 22.06 55.7834 20.788 54.1034 20.788C52.3994 20.788 51.3674 22.06 51.3674 24.436C51.3674 26.812 52.3994 28.084 54.1034 28.084Z" fill="white"/>
<path d="M68.9618 30.964C64.8578 30.964 62.3858 28.252 62.3858 24.436C62.3858 20.62 64.8578 17.908 68.9618 17.908C73.0418 17.908 75.5138 20.62 75.5138 24.436C75.5138 28.252 73.0418 30.964 68.9618 30.964ZM68.9618 28.084C70.6418 28.084 71.6738 26.812 71.6738 24.436C71.6738 22.06 70.6418 20.788 68.9618 20.788C67.2578 20.788 66.2258 22.06 66.2258 24.436C66.2258 26.812 67.2578 28.084 68.9618 28.084Z" fill="white"/>
<path d="M86.1963 13.42H90.0363V30.58H86.1963V29.356H86.1483C85.6683 30.004 84.3723 30.964 82.5963 30.964C79.3323 30.964 77.2443 28.468 77.2443 24.436C77.2443 20.404 79.3323 17.908 82.5963 17.908C84.3723 17.908 85.6683 18.868 86.1483 19.516H86.1963V13.42ZM83.6043 28.084C85.1643 28.084 86.1243 26.836 86.1243 24.436C86.1243 22.036 85.1643 20.788 83.6043 20.788C82.0443 20.788 81.0843 22.036 81.0843 24.436C81.0843 26.836 82.0443 28.084 83.6043 28.084Z" fill="white"/>
<path d="M104.002 19.804C103.69 17.932 102.826 16.564 100.546 16.564C97.6896 16.564 96.7296 18.772 96.7296 21.988C96.7296 25.228 97.6896 27.436 100.546 27.436C102.85 27.436 103.714 26.068 104.002 24.148H108.322C107.938 28.18 105.442 30.964 100.738 30.964C95.3136 30.964 92.4096 27.172 92.4096 21.988C92.4096 16.828 95.3136 13.036 100.738 13.036C105.418 13.036 107.914 15.82 108.322 19.804H104.002Z" fill="white"/>
<path d="M118.024 19.924C121.264 20.812 124.6 21.868 124.6 25.54C124.6 28.828 122.104 30.964 117.808 30.964C113.344 30.964 109.984 28.756 109.984 24.94H114.304C114.304 26.764 115.888 27.436 117.808 27.436C119.416 27.436 120.28 26.812 120.28 25.948C120.28 24.58 118.432 24.268 116.008 23.548C113.056 22.684 110.464 21.412 110.464 18.244C110.464 14.5 113.392 13.036 117.088 13.036C121.096 13.036 124.24 15.148 124.36 18.628H120.04C119.848 17.332 118.744 16.564 117.088 16.564C115.792 16.564 114.784 16.972 114.784 17.932C114.784 18.988 115.864 19.324 118.024 19.924Z" fill="white"/>
</svg>
