<svg width="125" height="44" viewBox="0 0 125 44" fill="none" xmlns="http://www.w3.org/2000/svg">
<path fill-rule="evenodd" clip-rule="evenodd" d="M28 14.9075C15.4875 2.82339 4.2 8.27648 0 18.3974C8.88125 6.09524 20.475 10.8067 28 14.9075ZM0 28.8673C7 31.6593 21 31.6593 28 28.8673C21 38.3775 7 38.3775 0 28.8673ZM27.9563 16.8704C17.7188 13.7125 10.4125 15.1255 5.64375 18.1792C20.8297 16.6867 28 19.0516 28 28.5182C23.6688 19.3134 12.25 19.8805 0 21.8872C1.93798 12.3624 17.4562 9.06164 27.9563 16.8704Z" fill="#0CC01E"/>
<path d="M38.32 20.7161H45.208V24.2441H38.32V30.5801H34V13.4201H46.768V16.9481H38.32V20.7161Z" fill="#011303"/>
<path d="M54.1034 30.9641C49.9994 30.9641 47.5274 28.2521 47.5274 24.4361C47.5274 20.6201 49.9994 17.9081 54.1034 17.9081C58.1834 17.9081 60.6554 20.6201 60.6554 24.4361C60.6554 28.2521 58.1834 30.9641 54.1034 30.9641ZM54.1034 28.0841C55.7834 28.0841 56.8154 26.8121 56.8154 24.4361C56.8154 22.0601 55.7834 20.7881 54.1034 20.7881C52.3994 20.7881 51.3674 22.0601 51.3674 24.4361C51.3674 26.8121 52.3994 28.0841 54.1034 28.0841Z" fill="#011303"/>
<path d="M68.9618 30.9641C64.8578 30.9641 62.3858 28.2521 62.3858 24.4361C62.3858 20.6201 64.8578 17.9081 68.9618 17.9081C73.0418 17.9081 75.5138 20.6201 75.5138 24.4361C75.5138 28.2521 73.0418 30.9641 68.9618 30.9641ZM68.9618 28.0841C70.6418 28.0841 71.6738 26.8121 71.6738 24.4361C71.6738 22.0601 70.6418 20.7881 68.9618 20.7881C67.2578 20.7881 66.2258 22.0601 66.2258 24.4361C66.2258 26.8121 67.2578 28.0841 68.9618 28.0841Z" fill="#011303"/>
<path d="M86.1963 13.4201H90.0363V30.5801H86.1963V29.3561H86.1483C85.6683 30.0041 84.3723 30.9641 82.5963 30.9641C79.3323 30.9641 77.2443 28.4681 77.2443 24.4361C77.2443 20.4041 79.3323 17.9081 82.5963 17.9081C84.3723 17.9081 85.6683 18.8681 86.1483 19.5161H86.1963V13.4201ZM83.6043 28.0841C85.1643 28.0841 86.1243 26.8361 86.1243 24.4361C86.1243 22.0361 85.1643 20.7881 83.6043 20.7881C82.0443 20.7881 81.0843 22.0361 81.0843 24.4361C81.0843 26.8361 82.0443 28.0841 83.6043 28.0841Z" fill="#011303"/>
<path d="M104.002 19.8041C103.69 17.9321 102.826 16.5641 100.546 16.5641C97.6896 16.5641 96.7296 18.7721 96.7296 21.9881C96.7296 25.2281 97.6896 27.4361 100.546 27.4361C102.85 27.4361 103.714 26.0681 104.002 24.1481H108.322C107.938 28.1801 105.442 30.9641 100.738 30.9641C95.3136 30.9641 92.4096 27.1721 92.4096 21.9881C92.4096 16.8281 95.3136 13.0361 100.738 13.0361C105.418 13.0361 107.914 15.8201 108.322 19.8041H104.002Z" fill="#011303"/>
<path d="M118.024 19.9241C121.264 20.8121 124.6 21.8681 124.6 25.5401C124.6 28.8281 122.104 30.9641 117.808 30.9641C113.344 30.9641 109.984 28.7561 109.984 24.9401H114.304C114.304 26.7641 115.888 27.4361 117.808 27.4361C119.416 27.4361 120.28 26.8121 120.28 25.9481C120.28 24.5801 118.432 24.2681 116.008 23.5481C113.056 22.6841 110.464 21.4121 110.464 18.2441C110.464 14.5001 113.392 13.0361 117.088 13.0361C121.096 13.0361 124.24 15.1481 124.36 18.6281H120.04C119.848 17.3321 118.744 16.5641 117.088 16.5641C115.792 16.5641 114.784 16.9721 114.784 17.9321C114.784 18.9881 115.864 19.3241 118.024 19.9241Z" fill="#011303"/>
</svg>
