<svg width="64" height="65" viewBox="0 0 64 65" fill="none" xmlns="http://www.w3.org/2000/svg">
<circle cx="32" cy="32" r="31.619" transform="matrix(-1 0 0 1 64 0.317383)" stroke="url(#paint0_linear_200_2006)" stroke-width="0.761905"/>
<path d="M26.848 42.7374C21.388 42.7374 19.064 38.1454 19.064 32.6574C19.064 27.1694 21.388 22.5494 26.848 22.5494C32.308 22.5494 34.632 27.1694 34.632 32.6574C34.632 38.1454 32.308 42.7374 26.848 42.7374ZM26.848 39.9654C30.264 39.9654 31.384 36.6894 31.384 32.6574C31.384 28.6254 30.264 25.3214 26.848 25.3214C23.432 25.3214 22.284 28.6254 22.284 32.6574C22.284 36.6894 23.432 39.9654 26.848 39.9654ZM40.9079 22.9694H43.5119V42.3174H40.2639V28.2894C39.1159 29.4094 37.8279 29.4094 36.2039 29.4094V27.0854C39.7039 27.0854 40.7119 25.3494 40.9079 22.9694Z" fill="white"/>
<defs>
<linearGradient id="paint0_linear_200_2006" x1="94.0952" y1="-16" x2="-4.82744e-06" y2="43.0476" gradientUnits="userSpaceOnUse">
<stop stop-color="white"/>
<stop offset="1" stop-color="white" stop-opacity="0"/>
</linearGradient>
</defs>
</svg>
