<svg width="64" height="65" viewBox="0 0 64 65" fill="none" xmlns="http://www.w3.org/2000/svg">
<circle cx="32" cy="32" r="31.619" transform="matrix(-1 0 0 1 64 0.317383)" stroke="url(#paint0_linear_200_2020)" stroke-width="0.761905"/>
<path d="M23.848 42.7374C18.388 42.7374 16.064 38.1454 16.064 32.6574C16.064 27.1694 18.388 22.5494 23.848 22.5494C29.308 22.5494 31.632 27.1694 31.632 32.6574C31.632 38.1454 29.308 42.7374 23.848 42.7374ZM23.848 39.9654C27.264 39.9654 28.384 36.6894 28.384 32.6574C28.384 28.6254 27.264 25.3214 23.848 25.3214C20.432 25.3214 19.284 28.6254 19.284 32.6574C19.284 36.6894 20.432 39.9654 23.848 39.9654ZM36.8081 28.8214H33.6441C33.6441 25.2094 36.1081 22.5494 40.9521 22.5494C44.3681 22.5494 47.3921 24.4814 47.3921 27.8974C47.3921 29.9694 46.3281 31.2574 44.4801 32.0414V32.0974C47.1121 32.8534 48.0361 34.5894 48.0361 36.8854C48.0361 40.6934 45.2081 42.7374 41.0081 42.7374C35.9121 42.7374 33.1401 40.1334 33.1401 35.6814H36.2761C36.2761 38.2854 37.4801 39.9654 40.7841 39.9654C43.6961 39.9654 44.8161 38.8454 44.8161 36.8014C44.8161 34.1414 42.8841 33.5534 40.8961 33.5534H39.1601V30.9774H40.7841C42.8001 30.9774 44.1441 30.1374 44.1441 28.1494C44.1441 26.5534 43.1361 25.3214 40.8401 25.3214C37.7881 25.3214 36.8081 26.9174 36.8081 28.8214Z" fill="white"/>
<defs>
<linearGradient id="paint0_linear_200_2020" x1="94.0952" y1="-16" x2="-4.82744e-06" y2="43.0476" gradientUnits="userSpaceOnUse">
<stop stop-color="white"/>
<stop offset="1" stop-color="white" stop-opacity="0"/>
</linearGradient>
</defs>
</svg>
