<svg width="64" height="65" viewBox="0 0 64 65" fill="none" xmlns="http://www.w3.org/2000/svg">
<circle cx="32" cy="32" r="31.619" transform="matrix(-1 0 0 1 64 0.317383)" stroke="url(#paint0_linear_200_2013)" stroke-width="0.761905"/>
<path d="M23.848 42.7374C18.388 42.7374 16.064 38.1454 16.064 32.6574C16.064 27.1694 18.388 22.5494 23.848 22.5494C29.308 22.5494 31.632 27.1694 31.632 32.6574C31.632 38.1454 29.308 42.7374 23.848 42.7374ZM23.848 39.9654C27.264 39.9654 28.384 36.6894 28.384 32.6574C28.384 28.6254 27.264 25.3214 23.848 25.3214C20.432 25.3214 19.284 28.6254 19.284 32.6574C19.284 36.6894 20.432 39.9654 23.848 39.9654ZM36.8687 29.8294H33.7327C33.7327 25.6574 35.9727 22.5494 40.9287 22.5494C44.5127 22.5494 47.3407 24.6774 47.3407 28.3734C47.3407 34.5334 39.0807 35.5694 37.4847 39.5174V39.5734H47.1447V42.3174H33.2567C33.2567 38.9014 35.3007 36.4094 38.2687 34.5334C41.8247 32.1814 44.0927 31.2574 44.0927 28.5134C44.0927 26.9174 43.3367 25.3214 40.8447 25.3214C37.9607 25.3214 36.8687 27.1694 36.8687 29.8294Z" fill="white"/>
<defs>
<linearGradient id="paint0_linear_200_2013" x1="94.0952" y1="-16" x2="-4.82744e-06" y2="43.0476" gradientUnits="userSpaceOnUse">
<stop stop-color="white"/>
<stop offset="1" stop-color="white" stop-opacity="0"/>
</linearGradient>
</defs>
</svg>
