<svg width="32" height="32" viewBox="0 0 32 32" fill="none" xmlns="http://www.w3.org/2000/svg">
<g clip-path="url(#clip0_207_2283)">
<path d="M16.0004 32.0008C24.8372 32.0008 32.0008 24.8372 32.0008 16.0004C32.0008 7.16362 24.8372 0 16.0004 0C7.16362 0 0 7.16362 0 16.0004C0 24.8372 7.16362 32.0008 16.0004 32.0008Z" fill="white"/>
<path d="M13.7757 13.3032V12.4299C13.4763 12.389 13.1721 12.3633 12.8615 12.3633C9.12104 12.3633 6.07812 15.4062 6.07812 19.1466C6.07812 21.4415 7.22514 23.4722 8.97415 24.7003C7.8448 23.4883 7.1521 21.8645 7.1521 20.0817C7.1521 16.3951 10.1091 13.3883 13.7757 13.3024V13.3032Z" fill="#25F4EE"/>
<path d="M13.9356 23.1796C15.6043 23.1796 16.9656 21.852 17.0274 20.1985L17.0331 5.42858H19.7316C19.6754 5.12517 19.6449 4.81293 19.6449 4.49347H15.9591L15.9535 19.2634C15.8917 20.9177 14.5303 22.2445 12.8616 22.2445C12.3431 22.2445 11.8542 22.1145 11.4248 21.8889C11.9883 22.6691 12.9025 23.1804 13.9364 23.1804L13.9356 23.1796Z" fill="#25F4EE"/>
<path d="M24.772 10.4414V9.6203C23.743 9.6203 22.7838 9.31449 21.9795 8.79034C22.6955 9.61228 23.6683 10.2055 24.772 10.4414Z" fill="#25F4EE"/>
<path d="M21.9797 8.78736C21.1955 7.88676 20.7187 6.71085 20.7187 5.42578H19.7314C19.9915 6.82965 20.8247 8.03445 21.9797 8.78736Z" fill="#FE2C55"/>
<path d="M12.861 16.0463C11.1529 16.0463 9.7627 17.4357 9.7627 19.1446C9.7627 20.3341 10.4377 21.368 11.4234 21.8865C11.0558 21.3776 10.8367 20.7539 10.8367 20.0797C10.8367 18.3716 12.2269 16.9814 13.935 16.9814C14.2536 16.9814 14.5594 17.0344 14.8492 17.1243V13.3622C14.5498 13.3212 14.2456 13.2955 13.935 13.2955C13.8812 13.2955 13.8282 13.2987 13.7744 13.2995V16.1892C13.4855 16.0985 13.1789 16.0463 12.8602 16.0463H12.861Z" fill="#FE2C55"/>
<path d="M24.7718 10.4414V13.3061C22.8606 13.3061 21.0899 12.6945 19.6443 11.6574V19.1472C19.6443 22.8876 16.6014 25.9305 12.861 25.9305C11.4154 25.9305 10.0749 25.4746 8.97363 24.7008C10.213 26.0308 11.978 26.8656 13.9357 26.8656C17.6762 26.8656 20.7191 23.8227 20.7191 20.0823V12.5926C22.1647 13.6304 23.9354 14.2412 25.8465 14.2412V10.5554C25.4781 10.5554 25.1185 10.5153 24.7726 10.4414H24.7718Z" fill="#FE2C55"/>
<path d="M19.6441 19.1442V11.6545C21.0897 12.6923 22.8604 13.3032 24.7716 13.3032V10.4384C23.6679 10.2025 22.695 9.60929 21.9791 8.78736C20.824 8.03445 19.9909 6.82965 19.7308 5.42578H17.0322L17.0266 20.1957C16.9648 21.85 15.6035 23.1768 13.9347 23.1768C12.9009 23.1768 11.9866 22.6663 11.4232 21.8853C10.4367 21.366 9.76245 20.3329 9.76245 19.1434C9.76245 17.4353 11.1527 16.0451 12.8608 16.0451C13.1794 16.0451 13.4852 16.0981 13.775 16.188V13.2984C10.1084 13.3842 7.15137 16.391 7.15137 20.0777C7.15137 21.8612 7.84407 23.4842 8.97343 24.6963C10.0755 25.47 11.4151 25.9259 12.8608 25.9259C16.6012 25.9259 19.6441 22.883 19.6441 19.1426V19.1442Z" fill="#121212"/>
</g>
<defs>
<clipPath id="clip0_207_2283">
<rect width="32" height="32" fill="white"/>
</clipPath>
</defs>
</svg>
