<svg width="336" height="315" viewBox="0 0 336 315" fill="none" xmlns="http://www.w3.org/2000/svg">
<mask id="path-1-inside-1_544_706" fill="white">
<path d="M321.019 153.171C321.019 112.547 304.882 73.5878 276.157 44.8627C247.431 16.1376 208.472 3.06698e-06 167.848 0C127.225 -3.06698e-06 88.2655 16.1376 59.5404 44.8627C30.8153 73.5877 14.6777 112.547 14.6777 153.171L56.5331 153.171C56.5331 123.648 68.2609 95.3345 89.1366 74.4589C110.012 53.5832 138.326 41.8554 167.848 41.8554C197.371 41.8554 225.685 53.5832 246.56 74.4589C267.436 95.3346 279.164 123.648 279.164 153.171H321.019Z"/>
</mask>
<path d="M321.019 153.171C321.019 112.547 304.882 73.5878 276.157 44.8627C247.431 16.1376 208.472 3.06698e-06 167.848 0C127.225 -3.06698e-06 88.2655 16.1376 59.5404 44.8627C30.8153 73.5877 14.6777 112.547 14.6777 153.171L56.5331 153.171C56.5331 123.648 68.2609 95.3345 89.1366 74.4589C110.012 53.5832 138.326 41.8554 167.848 41.8554C197.371 41.8554 225.685 53.5832 246.56 74.4589C267.436 95.3346 279.164 123.648 279.164 153.171H321.019Z" stroke="#EBEBEA" stroke-width="2.55285" mask="url(#path-1-inside-1_544_706)"/>
<path d="M59.3516 46.5894L87.4329 74.6707M169.124 0V40.8455M276.343 46.5894L247.624 74.6707" stroke="#EBEBEA" stroke-width="1.27642"/>
<g filter="url(#filter0_f_544_706)">
<path d="M72.1649 156.193C71.5671 137.269 76.5945 118.592 86.6114 102.525C96.6282 86.4573 111.185 73.7212 128.44 65.9268C145.695 58.1325 164.874 55.6299 183.552 58.7356C202.229 61.8413 219.566 70.4157 233.37 83.3747L217.645 100.126C207.154 90.2769 193.978 83.7603 179.783 81.4C165.588 79.0397 151.012 80.9416 137.898 86.8654C124.784 92.7891 113.721 102.469 106.108 114.68C98.4956 126.891 94.6748 141.085 95.1291 155.468L72.1649 156.193Z" fill="url(#paint0_linear_544_706)"/>
</g>
<circle cx="167.85" cy="153.171" r="3.82927" stroke="#EBEBEA" stroke-width="2.55285"/>
<path d="M275.149 50.5752L174.609 149.548C174.403 149.751 174.405 150.084 174.614 150.284C174.81 150.471 175.118 150.473 175.317 150.288L278.593 54.1733C279.501 53.3284 279.649 51.9444 278.94 50.9267C278.058 49.6604 276.249 49.4926 275.149 50.5752Z" fill="#53F463"/>
<path d="M167.85 159.553V231.032" stroke="#EBEBEA" stroke-width="1.59553" stroke-dasharray="2.55 2.55"/>
<path fill-rule="evenodd" clip-rule="evenodd" d="M35.1017 232.674H34.9282L34.7786 232.762L2.08623 251.957L1.8608 252.09H0.638211H0V252.728V313.996V314.635H0.638211H335.061H335.699V313.996V252.728V252.09H335.061H333.69L333.458 251.955L300.279 232.76L300.131 232.674H299.959H35.1017ZM4.75681 251.87L35.2752 233.951H299.788L330.761 251.87H4.75681ZM1.27642 313.358V253.366H334.423V313.358H1.27642Z" fill="#EBEBEA"/>
<mask id="path-8-outside-2_544_706" maskUnits="userSpaceOnUse" x="188.996" y="264.667" width="118" height="36" fill="black">
<rect fill="white" x="188.996" y="264.667" width="118" height="36"/>
<path d="M192.418 298.192L195.574 294.883H203.14L206.112 298.192H192.418ZM191.499 283.15L194.808 286.336V293.842L191.499 296.844V283.15ZM207.092 296.844L203.784 293.689V286.153L207.092 283.15V296.844ZM192.388 267.068H206.081L203.048 270.376H195.543L192.388 267.068ZM191.407 282.078V268.385L194.716 271.356V278.954L191.407 282.078ZM207 268.385V282.078L203.692 279.107V271.54L207 268.385ZM216.92 298.192L220.075 294.883H227.642L230.613 298.192H216.92ZM216.001 283.15L219.309 286.336V293.842L216.001 296.844V283.15ZM231.593 296.844L228.285 293.689V286.153L231.593 283.15V296.844ZM216.889 267.068H230.583L227.55 270.376H220.044L216.889 267.068ZM215.909 282.078V268.385L219.217 271.356V278.954L215.909 282.078ZM231.502 268.385V282.078L228.193 279.107V271.54L231.502 268.385ZM246.322 282.844H250.182V286.673H246.322V282.844ZM246.322 273.746H250.182V277.667H246.322V273.746ZM266.014 298.192L269.108 294.883H276.706L279.677 298.192H266.014ZM280.627 296.844L277.349 293.689V286.153L280.627 283.15V296.844ZM268.588 284.253C267.893 283.681 267.178 283.12 266.443 282.568L268.588 280.945H276.951L279.095 282.568L276.951 284.253H268.588ZM265.922 267.068H279.646L276.644 270.376H269.078L265.922 267.068ZM280.535 268.385V282.078L277.257 279.107V271.54L280.535 268.385ZM305.097 296.844L301.789 293.689V286.153L305.097 283.15V296.844ZM293.058 284.253C292.343 283.681 291.618 283.12 290.883 282.568L293.058 280.945H301.421L303.566 282.568L301.421 284.253H293.058ZM289.413 282.078V268.385L292.721 271.356V278.954L289.413 282.078ZM305.006 268.385V282.078L301.697 279.107V271.54L305.006 268.385Z"/>
</mask>
<path d="M192.418 298.192L195.574 294.883H203.14L206.112 298.192H192.418ZM191.499 283.15L194.808 286.336V293.842L191.499 296.844V283.15ZM207.092 296.844L203.784 293.689V286.153L207.092 283.15V296.844ZM192.388 267.068H206.081L203.048 270.376H195.543L192.388 267.068ZM191.407 282.078V268.385L194.716 271.356V278.954L191.407 282.078ZM207 268.385V282.078L203.692 279.107V271.54L207 268.385ZM216.92 298.192L220.075 294.883H227.642L230.613 298.192H216.92ZM216.001 283.15L219.309 286.336V293.842L216.001 296.844V283.15ZM231.593 296.844L228.285 293.689V286.153L231.593 283.15V296.844ZM216.889 267.068H230.583L227.55 270.376H220.044L216.889 267.068ZM215.909 282.078V268.385L219.217 271.356V278.954L215.909 282.078ZM231.502 268.385V282.078L228.193 279.107V271.54L231.502 268.385ZM246.322 282.844H250.182V286.673H246.322V282.844ZM246.322 273.746H250.182V277.667H246.322V273.746ZM266.014 298.192L269.108 294.883H276.706L279.677 298.192H266.014ZM280.627 296.844L277.349 293.689V286.153L280.627 283.15V296.844ZM268.588 284.253C267.893 283.681 267.178 283.12 266.443 282.568L268.588 280.945H276.951L279.095 282.568L276.951 284.253H268.588ZM265.922 267.068H279.646L276.644 270.376H269.078L265.922 267.068ZM280.535 268.385V282.078L277.257 279.107V271.54L280.535 268.385ZM305.097 296.844L301.789 293.689V286.153L305.097 283.15V296.844ZM293.058 284.253C292.343 283.681 291.618 283.12 290.883 282.568L293.058 280.945H301.421L303.566 282.568L301.421 284.253H293.058ZM289.413 282.078V268.385L292.721 271.356V278.954L289.413 282.078ZM305.006 268.385V282.078L301.697 279.107V271.54L305.006 268.385Z" fill="#121212"/>
<path d="M192.418 298.192L191.495 297.311L189.437 299.468H192.418V298.192ZM195.574 294.883V293.607H195.027L194.65 294.002L195.574 294.883ZM203.14 294.883L204.09 294.03L203.71 293.607H203.14V294.883ZM206.112 298.192V299.468H208.974L207.061 297.339L206.112 298.192ZM191.499 283.15L192.385 282.231L190.223 280.149V283.15H191.499ZM194.808 286.336H196.084V285.794L195.693 285.417L194.808 286.336ZM194.808 293.842L195.666 294.787L196.084 294.407V293.842H194.808ZM191.499 296.844H190.223V299.726L192.357 297.789L191.499 296.844ZM207.092 296.844L206.211 297.768L208.369 299.825V296.844H207.092ZM203.784 293.689H202.507V294.235L202.903 294.612L203.784 293.689ZM203.784 286.153L202.926 285.207L202.507 285.587V286.153H203.784ZM207.092 283.15H208.369V280.269L206.234 282.205L207.092 283.15ZM192.388 267.068V265.791H189.407L191.464 267.948L192.388 267.068ZM206.081 267.068L207.022 267.93L208.983 265.791H206.081V267.068ZM203.048 270.376V271.652H203.61L203.989 271.239L203.048 270.376ZM195.543 270.376L194.619 271.257L194.997 271.652H195.543V270.376ZM191.407 282.078H190.131V285.039L192.284 283.006L191.407 282.078ZM191.407 268.385L192.26 267.435L190.131 265.523V268.385H191.407ZM194.716 271.356H195.992V270.787L195.569 270.407L194.716 271.356ZM194.716 278.954L195.592 279.882L195.992 279.504V278.954H194.716ZM207 268.385H208.277V265.404L206.119 267.461L207 268.385ZM207 282.078L206.147 283.028L208.277 284.94V282.078H207ZM203.692 279.107H202.415V279.676L202.839 280.056L203.692 279.107ZM203.692 271.54L202.811 270.616L202.415 270.994V271.54H203.692ZM193.342 299.073L196.497 295.764L194.65 294.002L191.495 297.311L193.342 299.073ZM195.574 296.16H203.14V293.607H195.574V296.16ZM202.191 295.736L205.162 299.045L207.061 297.339L204.09 294.03L202.191 295.736ZM206.112 296.915H192.418V299.468H206.112V296.915ZM190.614 284.07L193.922 287.256L195.693 285.417L192.385 282.231L190.614 284.07ZM193.531 286.336V293.842H196.084V286.336H193.531ZM193.95 292.897L190.642 295.899L192.357 297.789L195.666 294.787L193.95 292.897ZM192.776 296.844V283.15H190.223V296.844H192.776ZM207.973 295.92L204.665 292.765L202.903 294.612L206.211 297.768L207.973 295.92ZM205.06 293.689V286.153H202.507V293.689H205.06ZM204.641 287.098L207.95 284.096L206.234 282.205L202.926 285.207L204.641 287.098ZM205.816 283.15V296.844H208.369V283.15H205.816ZM192.388 268.344H206.081V265.791H192.388V268.344ZM205.14 266.205L202.107 269.514L203.989 271.239L207.022 267.93L205.14 266.205ZM203.048 269.1H195.543V271.652H203.048V269.1ZM196.467 269.495L193.311 266.187L191.464 267.948L194.619 271.257L196.467 269.495ZM192.684 282.078V268.385H190.131V282.078H192.684ZM190.555 269.334L193.863 272.306L195.569 270.407L192.26 267.435L190.555 269.334ZM193.439 271.356V278.954H195.992V271.356H193.439ZM193.839 278.026L190.531 281.15L192.284 283.006L195.592 279.882L193.839 278.026ZM205.724 268.385V282.078H208.277V268.385H205.724ZM207.853 281.129L204.545 278.157L202.839 280.056L206.147 283.028L207.853 281.129ZM204.968 279.107V271.54H202.415V279.107H204.968ZM204.573 272.464L207.881 269.308L206.119 267.461L202.811 270.616L204.573 272.464ZM216.92 298.192L215.996 297.311L213.938 299.468H216.92V298.192ZM220.075 294.883V293.607H219.528L219.151 294.002L220.075 294.883ZM227.642 294.883L228.591 294.03L228.211 293.607H227.642V294.883ZM230.613 298.192V299.468H233.475L231.563 297.339L230.613 298.192ZM216.001 283.15L216.886 282.231L214.724 280.149V283.15H216.001ZM219.309 286.336H220.586V285.794L220.195 285.417L219.309 286.336ZM219.309 293.842L220.167 294.787L220.586 294.407V293.842H219.309ZM216.001 296.844H214.724V299.726L216.858 297.789L216.001 296.844ZM231.593 296.844L230.712 297.768L232.87 299.825V296.844H231.593ZM228.285 293.689H227.009V294.235L227.404 294.612L228.285 293.689ZM228.285 286.153L227.427 285.207L227.009 285.587V286.153H228.285ZM231.593 283.15H232.87V280.269L230.736 282.205L231.593 283.15ZM216.889 267.068V265.791H213.908L215.965 267.948L216.889 267.068ZM230.583 267.068L231.523 267.93L233.484 265.791H230.583V267.068ZM227.55 270.376V271.652H228.111L228.491 271.239L227.55 270.376ZM220.044 270.376L219.121 271.257L219.498 271.652H220.044V270.376ZM215.909 282.078H214.632V285.039L216.785 283.006L215.909 282.078ZM215.909 268.385L216.762 267.435L214.632 265.523V268.385H215.909ZM219.217 271.356H220.494V270.787L220.07 270.407L219.217 271.356ZM219.217 278.954L220.094 279.882L220.494 279.504V278.954H219.217ZM231.502 268.385H232.778V265.404L230.621 267.461L231.502 268.385ZM231.502 282.078L230.649 283.028L232.778 284.94V282.078H231.502ZM228.193 279.107H226.917V279.676L227.34 280.056L228.193 279.107ZM228.193 271.54L227.312 270.616L226.917 270.994V271.54H228.193ZM217.843 299.073L220.999 295.764L219.151 294.002L215.996 297.311L217.843 299.073ZM220.075 296.16H227.642V293.607H220.075V296.16ZM226.692 295.736L229.664 299.045L231.563 297.339L228.591 294.03L226.692 295.736ZM230.613 296.915H216.92V299.468H230.613V296.915ZM215.115 284.07L218.424 287.256L220.195 285.417L216.886 282.231L215.115 284.07ZM218.033 286.336V293.842H220.586V286.336H218.033ZM218.451 292.897L215.143 295.899L216.858 297.789L220.167 294.787L218.451 292.897ZM217.277 296.844V283.15H214.724V296.844H217.277ZM232.474 295.92L229.166 292.765L227.404 294.612L230.712 297.768L232.474 295.92ZM229.561 293.689V286.153H227.009V293.689H229.561ZM229.143 287.098L232.451 284.096L230.736 282.205L227.427 285.207L229.143 287.098ZM230.317 283.15V296.844H232.87V283.15H230.317ZM216.889 268.344H230.583V265.791H216.889V268.344ZM229.642 266.205L226.609 269.514L228.491 271.239L231.523 267.93L229.642 266.205ZM227.55 269.1H220.044V271.652H227.55V269.1ZM220.968 269.495L217.813 266.187L215.965 267.948L219.121 271.257L220.968 269.495ZM217.185 282.078V268.385H214.632V282.078H217.185ZM215.056 269.334L218.364 272.306L220.07 270.407L216.762 267.435L215.056 269.334ZM217.941 271.356V278.954H220.494V271.356H217.941ZM218.341 278.026L215.032 281.15L216.785 283.006L220.094 279.882L218.341 278.026ZM230.225 268.385V282.078H232.778V268.385H230.225ZM232.354 281.129L229.046 278.157L227.34 280.056L230.649 283.028L232.354 281.129ZM229.469 279.107V271.54H226.917V279.107H229.469ZM229.074 272.464L232.382 269.308L230.621 267.461L227.312 270.616L229.074 272.464ZM246.322 282.844V281.568H245.046V282.844H246.322ZM250.182 282.844H251.459V281.568H250.182V282.844ZM250.182 286.673V287.95H251.459V286.673H250.182ZM246.322 286.673H245.046V287.95H246.322V286.673ZM246.322 273.746V272.469H245.046V273.746H246.322ZM250.182 273.746H251.459V272.469H250.182V273.746ZM250.182 277.667V278.943H251.459V277.667H250.182ZM246.322 277.667H245.046V278.943H246.322V277.667ZM246.322 284.121H250.182V281.568H246.322V284.121ZM248.906 282.844V286.673H251.459V282.844H248.906ZM250.182 285.397H246.322V287.95H250.182V285.397ZM247.599 286.673V282.844H245.046V286.673H247.599ZM246.322 275.022H250.182V272.469H246.322V275.022ZM248.906 273.746V277.667H251.459V273.746H248.906ZM250.182 276.391H246.322V278.943H250.182V276.391ZM247.599 277.667V273.746H245.046V277.667H247.599ZM266.014 298.192L265.082 297.32L263.073 299.468H266.014V298.192ZM269.108 294.883V293.607H268.554L268.176 294.011L269.108 294.883ZM276.706 294.883L277.655 294.03L277.275 293.607H276.706V294.883ZM279.677 298.192V299.468H282.539L280.627 297.339L279.677 298.192ZM280.627 296.844L279.742 297.764L281.903 299.844V296.844H280.627ZM277.349 293.689H276.072V294.232L276.464 294.608L277.349 293.689ZM277.349 286.153L276.487 285.211L276.072 285.591V286.153H277.349ZM280.627 283.15H281.903V280.251L279.765 282.209L280.627 283.15ZM268.588 284.253L267.776 285.239L268.13 285.53H268.588V284.253ZM266.443 282.568L265.673 281.551L264.322 282.573L265.677 283.59L266.443 282.568ZM268.588 280.945V279.668H268.159L267.817 279.927L268.588 280.945ZM276.951 280.945L277.721 279.927L277.379 279.668H276.951V280.945ZM279.095 282.568L279.884 283.572L281.185 282.55L279.866 281.551L279.095 282.568ZM276.951 284.253V285.53H277.392L277.739 285.257L276.951 284.253ZM265.922 267.068V265.791H262.941L264.999 267.948L265.922 267.068ZM279.646 267.068L280.592 267.925L282.528 265.791H279.646V267.068ZM276.644 270.376V271.652H277.21L277.59 271.234L276.644 270.376ZM269.078 270.376L268.154 271.257L268.531 271.652H269.078V270.376ZM280.535 268.385H281.811V265.384L279.65 267.465L280.535 268.385ZM280.535 282.078L279.678 283.024L281.811 284.958V282.078H280.535ZM277.257 279.107H275.981V279.672L276.4 280.052L277.257 279.107ZM277.257 271.54L276.372 270.621L275.981 270.997V271.54H277.257ZM266.947 299.064L270.041 295.755L268.176 294.011L265.082 297.32L266.947 299.064ZM269.108 296.16H276.706V293.607H269.108V296.16ZM275.756 295.736L278.727 299.045L280.627 297.339L277.655 294.03L275.756 295.736ZM279.677 296.915H266.014V299.468H279.677V296.915ZM281.512 295.924L278.234 292.769L276.464 294.608L279.742 297.764L281.512 295.924ZM278.625 293.689V286.153H276.072V293.689H278.625ZM278.211 287.094L281.489 284.092L279.765 282.209L276.487 285.211L278.211 287.094ZM279.35 283.15V296.844H281.903V283.15H279.35ZM269.399 283.268C268.689 282.684 267.959 282.11 267.209 281.547L265.677 283.59C266.397 284.13 267.097 284.679 267.776 285.239L269.399 283.268ZM267.214 283.586L269.358 281.962L267.817 279.927L265.673 281.551L267.214 283.586ZM268.588 282.221H276.951V279.668H268.588V282.221ZM276.18 281.962L278.325 283.586L279.866 281.551L277.721 279.927L276.18 281.962ZM278.306 281.565L276.162 283.25L277.739 285.257L279.884 283.572L278.306 281.565ZM276.951 282.977H268.588V285.53H276.951V282.977ZM265.922 268.344H279.646V265.791H265.922V268.344ZM278.701 266.21L275.699 269.518L277.59 271.234L280.592 267.925L278.701 266.21ZM276.644 269.1H269.078V271.652H276.644V269.1ZM270.001 269.495L266.846 266.187L264.999 267.948L268.154 271.257L270.001 269.495ZM279.258 268.385V282.078H281.811V268.385H279.258ZM281.392 281.133L278.114 278.161L276.4 280.052L279.678 283.024L281.392 281.133ZM278.533 279.107V271.54H275.981V279.107H278.533ZM278.142 272.46L281.42 269.304L279.65 267.465L276.372 270.621L278.142 272.46ZM305.097 296.844L304.216 297.768L306.374 299.825V296.844H305.097ZM301.789 293.689H300.513V294.235L300.908 294.612L301.789 293.689ZM301.789 286.153L300.931 285.207L300.513 285.587V286.153H301.789ZM305.097 283.15H306.374V280.269L304.24 282.205L305.097 283.15ZM293.058 284.253L292.261 285.25L292.61 285.53H293.058V284.253ZM290.883 282.568L290.12 281.546L288.753 282.566L290.117 283.59L290.883 282.568ZM293.058 280.945V279.668H292.634L292.295 279.922L293.058 280.945ZM301.421 280.945L302.192 279.927L301.85 279.668H301.421V280.945ZM303.566 282.568L304.354 283.572L305.656 282.55L304.336 281.551L303.566 282.568ZM301.421 284.253V285.53H301.863L302.21 285.257L301.421 284.253ZM289.413 282.078H288.136V285.039L290.289 283.006L289.413 282.078ZM289.413 268.385L290.266 267.435L288.136 265.523V268.385H289.413ZM292.721 271.356H293.998V270.787L293.574 270.407L292.721 271.356ZM292.721 278.954L293.598 279.882L293.998 279.504V278.954H292.721ZM305.006 268.385H306.282V265.404L304.125 267.461L305.006 268.385ZM305.006 282.078L304.153 283.028L306.282 284.94V282.078H305.006ZM301.697 279.107H300.421V279.676L300.844 280.056L301.697 279.107ZM301.697 271.54L300.816 270.616L300.421 270.994V271.54H301.697ZM305.978 295.92L302.67 292.765L300.908 294.612L304.216 297.768L305.978 295.92ZM303.065 293.689V286.153H300.513V293.689H303.065ZM302.647 287.098L305.955 284.096L304.24 282.205L300.931 285.207L302.647 287.098ZM303.821 283.15V296.844H306.374V283.15H303.821ZM293.856 283.257C293.13 282.676 292.395 282.107 291.649 281.547L290.117 283.59C290.842 284.133 291.556 284.687 292.261 285.25L293.856 283.257ZM291.647 283.591L293.822 281.968L292.295 279.922L290.12 281.546L291.647 283.591ZM293.058 282.221H301.421V279.668H293.058V282.221ZM300.651 281.962L302.795 283.586L304.336 281.551L302.192 279.927L300.651 281.962ZM302.777 281.565L300.633 283.25L302.21 285.257L304.354 283.572L302.777 281.565ZM301.421 282.977H293.058V285.53H301.421V282.977ZM290.689 282.078V268.385H288.136V282.078H290.689ZM288.56 269.334L291.868 272.306L293.574 270.407L290.266 267.435L288.56 269.334ZM291.445 271.356V278.954H293.998V271.356H291.445ZM291.845 278.026L288.536 281.15L290.289 283.006L293.598 279.882L291.845 278.026ZM303.729 268.385V282.078H306.282V268.385H303.729ZM305.858 281.129L302.55 278.157L300.844 280.056L304.153 283.028L305.858 281.129ZM302.973 279.107V271.54H300.421V279.107H302.973ZM302.578 272.464L305.886 269.308L304.125 267.461L300.816 270.616L302.578 272.464Z" fill="#EBEBEA" mask="url(#path-8-outside-2_544_706)"/>
<path d="M192.418 298.192L195.574 294.883H203.14L206.112 298.192H192.418ZM191.499 283.15L194.808 286.336V293.842L191.499 296.844V283.15ZM207.092 296.844L203.784 293.689V286.153L207.092 283.15V296.844ZM192.388 267.068H206.081L203.048 270.376H195.543L192.388 267.068ZM191.407 282.078V268.385L194.716 271.356V278.954L191.407 282.078ZM207 268.385V282.078L203.692 279.107V271.54L207 268.385ZM216.92 298.192L220.075 294.883H227.642L230.613 298.192H216.92ZM216.001 283.15L219.309 286.336V293.842L216.001 296.844V283.15ZM231.593 296.844L228.285 293.689V286.153L231.593 283.15V296.844ZM216.889 267.068H230.583L227.55 270.376H220.044L216.889 267.068ZM215.909 282.078V268.385L219.217 271.356V278.954L215.909 282.078ZM231.502 268.385V282.078L228.193 279.107V271.54L231.502 268.385ZM246.322 282.844H250.182V286.673H246.322V282.844ZM246.322 273.746H250.182V277.667H246.322V273.746ZM266.014 298.192L269.108 294.883H276.706L279.677 298.192H266.014ZM280.627 296.844L277.349 293.689V286.153L280.627 283.15V296.844ZM268.588 284.253C267.893 283.681 267.178 283.12 266.443 282.568L268.588 280.945H276.951L279.095 282.568L276.951 284.253H268.588ZM265.922 267.068H279.646L276.644 270.376H269.078L265.922 267.068ZM280.535 268.385V282.078L277.257 279.107V271.54L280.535 268.385ZM305.097 296.844L301.789 293.689V286.153L305.097 283.15V296.844ZM293.058 284.253C292.343 283.681 291.618 283.12 290.883 282.568L293.058 280.945H301.421L303.566 282.568L301.421 284.253H293.058ZM289.413 282.078V268.385L292.721 271.356V278.954L289.413 282.078ZM305.006 268.385V282.078L301.697 279.107V271.54L305.006 268.385Z" fill="#121212"/>
<path d="M35.1857 298.242C34.6772 298.252 34.3381 298.207 34.1686 298.107C34.009 298.007 33.9243 297.773 33.9143 297.404L33.8395 294.786C31.9049 294.607 30.5138 294.078 29.6662 293.201C28.8286 292.313 28.3948 291.281 28.3649 290.105L28.32 288.459C28.31 287.851 28.4347 287.472 28.6939 287.322C28.9532 287.163 29.5366 287.083 30.444 287.083C31.3615 287.083 31.9897 287.163 32.3287 287.322C32.6778 287.472 32.8423 287.851 32.8224 288.459L32.7625 290.239C32.7326 291.077 32.9021 291.65 33.2711 291.959C33.65 292.258 34.2783 292.408 35.1558 292.408C36.0633 292.408 36.6965 292.258 37.0555 291.959C37.4145 291.65 37.589 291.077 37.579 290.239L37.5641 289.267C37.5541 288.569 37.4743 287.995 37.3247 287.547C37.1851 287.098 36.7912 286.734 36.1431 286.455L30.9526 284.241C29.8058 283.742 29.028 283.109 28.6191 282.341C28.2203 281.563 28.0009 280.556 27.961 279.32L27.8114 274.249C27.7715 272.913 28.2003 271.801 29.0978 270.913C29.9953 270.026 31.4562 269.487 33.4805 269.298L33.4207 266.65C33.4107 266.231 33.5104 265.952 33.7198 265.813C33.9392 265.663 34.4229 265.588 35.1708 265.588C35.9287 265.588 36.4123 265.658 36.6217 265.798C36.8311 265.937 36.9308 266.216 36.9209 266.635L36.876 269.313C38.8006 269.532 40.1917 270.086 41.0493 270.973C41.9069 271.851 42.3207 272.943 42.2908 274.249L42.1412 280.232C42.1313 280.84 41.9518 281.224 41.6028 281.384C41.2537 281.534 40.6155 281.608 39.6881 281.608C38.7507 281.608 38.1075 281.534 37.7585 281.384C37.4195 281.224 37.24 280.84 37.22 280.232L37.0405 273.785C37.0206 272.908 36.8411 272.359 36.502 272.14C36.173 271.911 35.6893 271.796 35.0511 271.796C34.4129 271.796 33.9243 271.911 33.5852 272.14C33.2561 272.359 33.0816 272.908 33.0617 273.785L32.8972 279.754C32.8872 280.501 32.9919 281.085 33.2113 281.504C33.4307 281.922 33.8644 282.271 34.5126 282.551L39.359 284.585C40.0671 284.874 40.6205 285.203 41.0194 285.572C41.4183 285.941 41.6925 286.42 41.8421 287.008C42.0016 287.597 42.0565 288.369 42.0066 289.327L41.9767 290.164C41.9368 291.331 41.4931 292.348 40.6454 293.216C39.8078 294.083 38.4366 294.607 36.532 294.786L36.4572 297.389C36.4472 297.758 36.3575 297.992 36.1879 298.092C36.0284 298.192 35.6943 298.242 35.1857 298.242ZM52.6867 298.242C52.1781 298.252 51.8391 298.207 51.6695 298.107C51.51 298.007 51.4252 297.773 51.4153 297.404L51.3405 294.786C49.4059 294.607 48.0148 294.078 47.1672 293.201C46.3295 292.313 45.8957 291.281 45.8658 290.105L45.8209 288.459C45.811 287.851 45.9356 287.472 46.1949 287.322C46.4542 287.163 47.0375 287.083 47.945 287.083C48.8624 287.083 49.4906 287.163 49.8297 287.322C50.1787 287.472 50.3433 287.851 50.3233 288.459L50.2635 290.239C50.2336 291.077 50.4031 291.65 50.7721 291.959C51.151 292.258 51.7792 292.408 52.6568 292.408C53.5642 292.408 54.1975 292.258 54.5564 291.959C54.9154 291.65 55.09 291.077 55.08 290.239L55.065 289.267C55.0551 288.569 54.9753 287.995 54.8257 287.547C54.6861 287.098 54.2922 286.734 53.644 286.455L48.4536 284.241C47.3068 283.742 46.5289 283.109 46.1201 282.341C45.7212 281.563 45.5018 280.556 45.4619 279.32L45.3124 274.249C45.2725 272.913 45.7013 271.801 46.5988 270.913C47.4962 270.026 48.9571 269.487 50.9815 269.298L50.9216 266.65C50.9117 266.231 51.0114 265.952 51.2208 265.813C51.4402 265.663 51.9238 265.588 52.6717 265.588C53.4296 265.588 53.9133 265.658 54.1227 265.798C54.3321 265.937 54.4318 266.216 54.4218 266.635L54.377 269.313C56.3016 269.532 57.6927 270.086 58.5503 270.973C59.4079 271.851 59.8217 272.943 59.7918 274.249L59.6422 280.232C59.6322 280.84 59.4527 281.224 59.1037 281.384C58.7547 281.534 58.1165 281.608 57.1891 281.608C56.2517 281.608 55.6085 281.534 55.2595 281.384C54.9204 281.224 54.7409 280.84 54.721 280.232L54.5415 273.785C54.5215 272.908 54.342 272.359 54.003 272.14C53.6739 271.911 53.1903 271.796 52.5521 271.796C51.9139 271.796 51.4252 271.911 51.0862 272.14C50.7571 272.359 50.5826 272.908 50.5626 273.785L50.3981 279.754C50.3881 280.501 50.4928 281.085 50.7122 281.504C50.9316 281.922 51.3654 282.271 52.0136 282.551L56.86 284.585C57.568 284.874 58.1215 285.203 58.5203 285.572C58.9192 285.941 59.1935 286.42 59.343 287.008C59.5026 287.597 59.5574 288.369 59.5076 289.327L59.4777 290.164C59.4378 291.331 58.994 292.348 58.1464 293.216C57.3087 294.083 55.9376 294.607 54.0329 294.786L53.9581 297.389C53.9482 297.758 53.8584 297.992 53.6889 298.092C53.5293 298.192 53.1953 298.242 52.6867 298.242Z" fill="#121212"/>
<defs>
<filter id="filter0_f_544_706" x="70.1172" y="55.439" width="165.254" height="102.754" filterUnits="userSpaceOnUse" color-interpolation-filters="sRGB">
<feFlood flood-opacity="0" result="BackgroundImageFix"/>
<feBlend mode="normal" in="SourceGraphic" in2="BackgroundImageFix" result="shape"/>
<feGaussianBlur stdDeviation="1" result="effect1_foregroundBlur_544_706"/>
</filter>
<linearGradient id="paint0_linear_544_706" x1="119.983" y1="68.2886" x2="167.638" y2="150.501" gradientUnits="userSpaceOnUse">
<stop stop-color="#53F463"/>
<stop offset="1" stop-color="#53F463" stop-opacity="0"/>
</linearGradient>
</defs>
</svg>
