<svg width="40" height="41" viewBox="0 0 40 41" fill="none" xmlns="http://www.w3.org/2000/svg">
<rect x="0.5" y="1" width="39" height="39" rx="19.5" fill="white"/>
<rect x="0.5" y="1" width="39" height="39" rx="19.5" stroke="#F0F0F0"/>
<path d="M26.3438 17.25C26.3438 17.4062 26.3438 17.5312 26.3438 17.6875C26.3438 22.0312 23.0625 27 17.0312 27C15.1562 27 13.4375 26.4688 12 25.5312C12.25 25.5625 12.5 25.5938 12.7812 25.5938C14.3125 25.5938 15.7188 25.0625 16.8438 24.1875C15.4062 24.1562 14.1875 23.2188 13.7812 21.9062C14 21.9375 14.1875 21.9688 14.4062 21.9688C14.6875 21.9688 15 21.9062 15.25 21.8438C13.75 21.5312 12.625 20.2188 12.625 18.625V18.5938C13.0625 18.8438 13.5938 18.9688 14.125 19C13.2188 18.4062 12.6562 17.4062 12.6562 16.2812C12.6562 15.6562 12.8125 15.0938 13.0938 14.625C14.7188 16.5938 17.1562 17.9062 19.875 18.0625C19.8125 17.8125 19.7812 17.5625 19.7812 17.3125C19.7812 15.5 21.25 14.0312 23.0625 14.0312C24 14.0312 24.8438 14.4062 25.4688 15.0625C26.1875 14.9062 26.9062 14.625 27.5312 14.25C27.2812 15.0312 26.7812 15.6562 26.0938 16.0625C26.75 16 27.4062 15.8125 27.9688 15.5625C27.5312 16.2188 26.9688 16.7812 26.3438 17.25Z" fill="#121212"/>
</svg>
