<svg width="20" height="20" viewBox="0 0 20 20" fill="none" xmlns="http://www.w3.org/2000/svg">
<path fill-rule="evenodd" clip-rule="evenodd" d="M10.0013 2.29165C5.74411 2.29165 2.29297 5.74279 2.29297 9.99998C2.29297 14.2572 5.74411 17.7083 10.0013 17.7083C14.2585 17.7083 17.7096 14.2572 17.7096 9.99998C17.7096 5.74279 14.2585 2.29165 10.0013 2.29165ZM1.04297 9.99998C1.04297 5.05243 5.05375 1.04165 10.0013 1.04165C14.9489 1.04165 18.9596 5.05243 18.9596 9.99998C18.9596 14.9475 14.9489 18.9583 10.0013 18.9583C5.05375 18.9583 1.04297 14.9475 1.04297 9.99998ZM8.89019 11.4583C8.00807 11.4583 7.29297 12.1734 7.29297 13.0555C7.29297 13.324 7.51061 13.5416 7.77908 13.5416H12.2235C12.492 13.5416 12.7096 13.324 12.7096 13.0555C12.7096 12.1734 11.9945 11.4583 11.1124 11.4583H8.89019ZM6.04297 13.0555C6.04297 11.4831 7.31771 10.2083 8.89019 10.2083H11.1124C12.6849 10.2083 13.9596 11.4831 13.9596 13.0555C13.9596 14.0144 13.1824 14.7916 12.2235 14.7916H7.77908C6.82025 14.7916 6.04297 14.0144 6.04297 13.0555ZM8.95964 6.66665C8.95964 6.09135 9.42601 5.62498 10.0013 5.62498C10.5766 5.62498 11.043 6.09135 11.043 6.66665C11.043 7.24195 10.5766 7.70832 10.0013 7.70832C9.42601 7.70832 8.95964 7.24195 8.95964 6.66665ZM10.0013 4.37498C8.73565 4.37498 7.70964 5.401 7.70964 6.66665C7.70964 7.9323 8.73565 8.95832 10.0013 8.95832C11.267 8.95832 12.293 7.9323 12.293 6.66665C12.293 5.401 11.267 4.37498 10.0013 4.37498Z" fill="#595959"/>
</svg>
